<?xml version="1.0" encoding="UTF-8"?>
<svg version="1.1" xmlns="http://www.w3.org/2000/svg" width="40" height="40">
<path d="M0 0 C4.06575732 2.78278501 6.44877969 6.51242408 7.7578125 11.203125 C8.22860992 17.04101298 7.81962439 21.03631744 4.7578125 26.203125 C0.24743756 31.00553861 -4.28075923 33.09281826 -10.8515625 33.375 C-16.55923077 32.96464476 -21.26248646 30.18282604 -25.2421875 26.203125 C-27.96352807 21.32347985 -29.19306101 16.74988713 -28.2421875 11.203125 C-26.09059891 4.85246835 -22.85476283 1.15586842 -16.9296875 -2.046875 C-10.52091461 -3.83536976 -5.71802328 -3.18415414 0 0 Z M-23.6171875 6.828125 C-25.82126643 11.40582739 -26.0393514 15.20864911 -25.2421875 20.203125 C-22.91249819 25.04171048 -20.08077298 27.87343569 -15.2421875 30.203125 C-10.24771161 31.0002889 -6.44488989 30.78220393 -1.8671875 28.578125 C1.71688963 25.33538855 4.35316491 22.73836604 5.140625 17.8046875 C5.39665169 12.12089506 4.69408182 8.55373845 0.7578125 4.203125 C-3.59280095 0.26685568 -7.15995756 -0.43571419 -12.84375 -0.1796875 C-17.77742854 0.60777259 -20.37445105 3.24404787 -23.6171875 6.828125 Z " fill="#4AAF4E" transform="translate(30.2421875,4.796875)"/>
<path d="M0 0 C1.0625 1.8125 1.0625 1.8125 2 4 C1.67 4.99 1.34 5.98 1 7 C0.01 7.33 -0.98 7.66 -2 8 C-2.33 8.66 -2.66 9.32 -3 10 C-3.61875 9.67 -4.2375 9.34 -4.875 9 C-6.91018344 7.85806765 -6.91018344 7.85806765 -9 8 C-10.34882408 8.63474075 -11.6846659 9.29848848 -13 10 C-13 6.48283697 -12.17554415 5.62878252 -10 3 C-7.83125748 3.50603992 -6.00032373 3.99983813 -4 5 C-2.68 3.35 -1.36 1.7 0 0 Z " fill="#49B04D" transform="translate(26,14)"/>
</svg>
